<svg width="16" height="18" viewBox="0 0 16 18" fill="none" xmlns="http://www.w3.org/2000/svg">
<path fill-rule="evenodd" clip-rule="evenodd" d="M7.48561 13.8182C6.62938 14.6262 5.28009 14.6113 4.44213 13.7733C3.58894 12.9201 3.58894 11.5368 4.44213 10.6836L11.2395 3.88627C11.4101 3.71563 11.6868 3.71563 11.8574 3.88627C12.028 4.05691 12.028 4.33357 11.8574 4.50421L5.06007 11.3015C4.54815 11.8135 4.54815 12.6434 5.06007 13.1554C5.57199 13.6673 6.40197 13.6673 6.91389 13.1554L13.7112 6.35803C14.9057 5.16355 14.9057 3.22692 13.7112 2.03245C12.5167 0.837975 10.5801 0.837975 9.38565 2.03245L2.58831 8.82978C0.711281 10.7068 0.711281 13.7501 2.58831 15.6271C4.46535 17.5042 7.50862 17.5042 9.38565 15.6271L14.9471 10.0657C15.1177 9.89502 15.3944 9.89502 15.565 10.0657C15.7357 10.2363 15.7357 10.513 15.565 10.6836L10.0036 16.2451C7.78528 18.4634 4.18868 18.4634 1.97037 16.2451C-0.23273 14.042 -0.247833 10.4794 1.92507 8.25766L8.76771 1.41451C10.3035 -0.121243 12.7934 -0.121243 14.3292 1.41451C15.8649 2.95026 15.8649 5.44021 14.3292 6.97597L7.48627 13.8189L7.48561 13.8182Z" fill="#292932"/>
</svg>
