<svg width="19" height="18" viewBox="0 0 19 18" fill="none" xmlns="http://www.w3.org/2000/svg">
<g clip-path="url(#clip0)">
<path d="M16.3828 14.8983C16.3428 12.452 13.8416 11.7292 12.0153 11.2015C11.8022 11.1399 11.5973 11.0807 11.4053 11.0216V10.0124C11.7787 9.77836 12.1058 9.47717 12.3697 9.12586H13.4822C14.0266 9.12586 14.4696 8.68292 14.4696 8.13852V6.94335C14.5355 6.7895 14.5722 6.62019 14.5722 6.4424V6.07069C14.5722 5.89308 14.5355 5.72388 14.4696 5.57014V4.95357C14.4696 2.2222 12.2475 3.05176e-05 9.51613 3.05176e-05C6.78532 3.05176e-05 4.56368 2.2222 4.56368 4.9536V5.55253C4.56368 5.55724 4.56421 5.56177 4.56438 5.56645C4.49737 5.72121 4.46004 5.89164 4.46004 6.07073V6.44244C4.46004 7.14511 5.03126 7.71679 5.73337 7.71679H6.0239C6.22514 8.68176 6.81756 9.50477 7.62696 10.0122V11.0216C7.4349 11.0807 7.23001 11.1399 7.01693 11.2015C5.19062 11.7292 2.68946 12.452 2.64945 14.8983C2.64941 14.9002 2.64941 14.9021 2.64941 14.904V17.6485C2.64941 17.8426 2.80684 18 3.00098 18H4.04329C4.23743 18 4.39486 17.8426 4.39486 17.6485C4.39486 17.4543 4.23743 17.2969 4.04329 17.2969H3.35251V14.9069C3.36731 14.0534 3.75937 13.4136 4.58629 12.8935C5.13195 12.5503 5.79904 12.3057 6.45661 12.1011L7.30602 13.7561C7.4007 13.9406 7.6431 14.0032 7.81537 13.887L8.19411 13.6315L8.51927 14.8537L7.96214 17.2969H7.20023C7.0061 17.2969 6.84867 17.4543 6.84867 17.6484C6.84867 17.8426 7.0061 18 7.20023 18H16.0313C16.2254 18 16.3828 17.8426 16.3828 17.6484V14.904C16.3828 14.9021 16.3828 14.9002 16.3828 14.8983ZM11.8201 11.8769C11.8433 11.8836 11.8669 11.8905 11.8902 11.8972L11.2825 13.0825L10.1451 12.3156L11.1088 11.6656C11.3327 11.736 11.5707 11.8049 11.8201 11.8769ZM9.51637 12.7397L10.2213 13.215L9.88063 14.4956H9.15162L8.81103 13.2154L9.51637 12.7397ZM9.5163 11.8916L8.33005 11.0917V10.3515C8.70134 10.4829 9.1004 10.5549 9.51609 10.5549C9.93175 10.5549 10.3309 10.4831 10.7021 10.3518V11.0917L9.5163 11.8916ZM12.3803 5.0179C12.3755 5.01484 12.3707 5.01178 12.3659 5.00873C11.6445 4.54951 11.0215 4.15291 10.0452 4.43223C10.0362 4.43483 10.0272 4.43779 10.0183 4.44109C9.81137 4.51882 9.62318 4.59128 9.44114 4.66135C8.32939 5.0893 7.72238 5.32302 6.65193 5.29293V5.0114C6.65193 3.43203 7.9368 2.14714 9.51609 2.14714C11.0954 2.14714 12.3802 3.43203 12.3802 5.0114V5.0179H12.3803ZM13.7664 8.13852C13.7664 8.29525 13.639 8.42273 13.4822 8.42273H12.7816C12.8806 8.19847 12.9572 7.96225 13.0084 7.71675H13.2989C13.464 7.71675 13.6216 7.68483 13.7665 7.62735V8.13852H13.7664ZM13.8691 6.4424C13.8691 6.75737 13.6133 7.01362 13.2989 7.01362H13.0831C13.0832 7.00491 13.0834 5.50046 13.0834 5.50046H13.2989C13.6133 5.50046 13.8691 5.75626 13.8691 6.07069V6.4424H13.8691ZM5.73337 7.01366C5.41896 7.01366 5.16317 6.7574 5.16317 6.44244V6.07073C5.16317 5.75629 5.41893 5.50049 5.73337 5.50049H5.94884C5.94884 5.50049 5.94912 7.00494 5.94919 7.01366H5.73337ZM5.95542 4.79733H5.73333C5.56898 4.79733 5.412 4.82897 5.26765 4.88592C5.30397 2.57334 7.19566 0.703158 9.51613 0.703158C11.8373 0.703158 13.7295 2.57355 13.7656 4.88631C13.621 4.82911 13.4636 4.79733 13.2989 4.79733H13.0768C12.9657 2.92954 11.4112 1.44401 9.51613 1.44401C7.62099 1.44401 6.06651 2.92958 5.95542 4.79733ZM6.6731 7.32954C6.67306 7.32919 6.67299 7.32884 6.67296 7.32849C6.65963 7.21658 6.65197 7.10296 6.65197 6.98754V5.99602C7.85478 6.02534 8.57228 5.7493 9.69374 5.31757C9.87036 5.24958 10.0529 5.1793 10.2518 5.10453C10.9159 4.91915 11.298 5.16247 11.9883 5.60188C12.1081 5.67814 12.2394 5.76171 12.3803 5.84752V6.98754C12.3803 7.51035 12.2388 8.00043 11.9932 8.42276H9.51613C9.32199 8.42276 9.16456 8.58016 9.16456 8.77433C9.16456 8.9685 9.32199 9.12589 9.51613 9.12589H11.4189C10.9126 9.57698 10.246 9.8518 9.51613 9.8518C8.0526 9.85176 6.84273 8.74814 6.6731 7.32954ZM7.75064 13.0825L7.14223 11.8972C7.1655 11.8904 7.18898 11.8836 7.21212 11.8769C7.46152 11.8049 7.6996 11.736 7.92354 11.6655L8.8876 12.3156L7.75064 13.0825ZM8.68334 17.2969L9.16179 15.1988H9.87057L10.3498 17.2969H8.68334ZM15.6797 17.2969H11.071L10.513 14.8536L10.8383 13.631L11.2179 13.887C11.3903 14.0032 11.6327 13.9406 11.7273 13.756L12.5758 12.1012C13.2333 12.3058 13.9004 12.5503 14.446 12.8935C15.2729 13.4136 15.665 14.0534 15.6798 14.9069V17.2969H15.6797Z" fill="#343538"/>
<path d="M14.2913 15.539H12.5195C12.3254 15.539 12.168 15.6964 12.168 15.8905C12.168 16.0847 12.3254 16.2421 12.5195 16.2421H14.2913C14.4854 16.2421 14.6429 16.0847 14.6429 15.8905C14.6429 15.6964 14.4855 15.539 14.2913 15.539Z" fill="#343538"/>
<path d="M5.62109 17.2969C5.42696 17.2969 5.26953 17.4543 5.26953 17.6485C5.26953 17.8426 5.42696 18 5.62109 18H5.62208C5.81621 18 5.97311 17.8426 5.97311 17.6485C5.97311 17.4543 5.81523 17.2969 5.62109 17.2969Z" fill="#343538"/>
</g>
<defs>
<clipPath id="clip0">
<rect width="18" height="18" fill="white" transform="translate(0.515625)"/>
</clipPath>
</defs>
</svg>
