<svg width="16" height="5" viewBox="0 0 16 5" fill="none" xmlns="http://www.w3.org/2000/svg">
<path d="M2.78641 0.976074C1.80201 0.976074 0.996582 1.7815 0.996582 2.7659C0.996582 3.75031 1.80201 4.55574 2.78641 4.55574C3.77082 4.55574 4.57624 3.75031 4.57624 2.7659C4.57624 1.7815 3.77082 0.976074 2.78641 0.976074ZM13.5254 0.976074C12.541 0.976074 11.7356 1.7815 11.7356 2.7659C11.7356 3.75031 12.541 4.55574 13.5254 4.55574C14.5098 4.55574 15.3152 3.75031 15.3152 2.7659C15.3152 1.7815 14.5098 0.976074 13.5254 0.976074ZM8.1559 0.976074C7.1715 0.976074 6.36607 1.7815 6.36607 2.7659C6.36607 3.75031 7.1715 4.55574 8.1559 4.55574C9.14031 4.55574 9.94573 3.75031 9.94573 2.7659C9.94573 1.7815 9.14031 0.976074 8.1559 0.976074Z" fill="white"/>
</svg>
