<svg width="14" height="13" viewBox="0 0 14 13" fill="none" xmlns="http://www.w3.org/2000/svg">
<path d="M13.7215 6.59684C13.1722 5.43965 12.5186 4.4959 11.7605 3.76559L10.9655 4.56059C11.6138 5.18012 12.1785 5.99059 12.6668 6.99996C11.3668 9.69059 9.52148 10.9687 6.9996 10.9687C6.24262 10.9687 5.54538 10.8521 4.90788 10.619L4.04648 11.4804C4.93189 11.8893 5.91627 12.0937 6.9996 12.0937C10.0027 12.0937 12.2434 10.5296 13.7215 7.40152C13.7809 7.27572 13.8117 7.13831 13.8117 6.99918C13.8117 6.86005 13.7809 6.72264 13.7215 6.59684V6.59684ZM12.7282 1.58684L12.0621 0.919962C12.0505 0.90834 12.0367 0.89912 12.0215 0.892829C12.0064 0.886539 11.9901 0.883301 11.9737 0.883301C11.9572 0.883301 11.941 0.886539 11.9258 0.892829C11.9106 0.89912 11.8968 0.90834 11.8852 0.919962L10.1763 2.62809C9.23413 2.14684 8.17523 1.90621 6.9996 1.90621C3.99648 1.90621 1.75585 3.47027 0.277727 6.5984C0.218314 6.72421 0.1875 6.86161 0.1875 7.00074C0.1875 7.13987 0.218314 7.27728 0.277727 7.40309C0.868248 8.64684 1.57919 9.64376 2.41054 10.3939L0.757102 12.0468C0.733678 12.0703 0.720519 12.1021 0.720519 12.1352C0.720519 12.1683 0.733678 12.2001 0.757102 12.2236L1.42413 12.8906C1.44757 12.914 1.47935 12.9272 1.51249 12.9272C1.54563 12.9272 1.57741 12.914 1.60085 12.8906L12.7282 1.76371C12.7398 1.7521 12.749 1.73832 12.7553 1.72314C12.7616 1.70797 12.7649 1.6917 12.7649 1.67527C12.7649 1.65885 12.7616 1.64258 12.7553 1.62741C12.749 1.61223 12.7398 1.59845 12.7282 1.58684ZM1.33241 6.99996C2.63398 4.30934 4.47929 3.03121 6.9996 3.03121C7.85179 3.03121 8.62663 3.17746 9.3296 3.47481L8.23117 4.57324C7.71096 4.29569 7.11532 4.19268 6.53211 4.27941C5.9489 4.36614 5.40901 4.63802 4.99209 5.05495C4.57516 5.47187 4.30328 6.01176 4.21655 6.59497C4.12982 7.17818 4.23283 7.77382 4.51038 8.29402L3.20695 9.59746C2.48554 8.96074 1.86366 8.09809 1.33241 6.99996ZM5.1871 6.99996C5.18738 6.72444 5.25264 6.45286 5.37759 6.2073C5.50254 5.96174 5.68365 5.74911 5.90621 5.58669C6.12878 5.42428 6.38651 5.31665 6.65849 5.27256C6.93046 5.22847 7.209 5.24915 7.47148 5.33293L5.27007 7.53434C5.21489 7.36159 5.1869 7.18131 5.1871 6.99996V6.99996Z" fill="#8692A6"/>
<path d="M6.93762 8.75012C6.88355 8.75012 6.83027 8.74762 6.77746 8.74277L5.95215 9.56808C6.44854 9.75819 6.98937 9.80043 7.50926 9.68971C8.02915 9.579 8.50583 9.32006 8.88169 8.94419C9.25756 8.56833 9.5165 8.09165 9.62721 7.57176C9.73793 7.05187 9.69569 6.51104 9.50558 6.01465L8.68027 6.83996C8.68512 6.89277 8.68762 6.94605 8.68762 7.00012C8.68774 7.22996 8.64256 7.45758 8.55466 7.66996C8.46676 7.88233 8.33786 8.0753 8.17533 8.23783C8.0128 8.40036 7.81983 8.52925 7.60746 8.61716C7.39508 8.70506 7.16746 8.75024 6.93762 8.75012V8.75012Z" fill="#8692A6"/>
</svg>
