<svg width="14" height="11" viewBox="0 0 14 11" fill="none" xmlns="http://www.w3.org/2000/svg">
<path d="M13.3656 5.13301C12.0168 2.00036 9.47955 0.0566406 6.74193 0.0566406C4.00432 0.0566406 1.46702 2.00036 0.118244 5.13301C0.0814773 5.21728 0.0625 5.30824 0.0625 5.40019C0.0625 5.49213 0.0814773 5.58309 0.118244 5.66736C1.46702 8.80002 4.00432 10.7437 6.74193 10.7437C9.47955 10.7437 12.0168 8.80002 13.3656 5.66736C13.4024 5.58309 13.4214 5.49213 13.4214 5.40019C13.4214 5.30824 13.4024 5.21728 13.3656 5.13301ZM6.74193 9.40785C4.62529 9.40785 2.62216 7.87826 1.46702 5.40019C2.62216 2.92212 4.62529 1.39253 6.74193 1.39253C8.85858 1.39253 10.8617 2.92212 12.0168 5.40019C10.8617 7.87826 8.85858 9.40785 6.74193 9.40785ZM6.74193 2.72841C6.21369 2.72841 5.69731 2.88511 5.25809 3.17869C4.81887 3.47227 4.47655 3.88954 4.2744 4.37774C4.07225 4.86595 4.01935 5.40315 4.12241 5.92142C4.22546 6.4397 4.47984 6.91576 4.85336 7.28942C5.22689 7.66307 5.70278 7.91753 6.22088 8.02062C6.73897 8.12371 7.27599 8.0708 7.76402 7.86858C8.25205 7.66636 8.66918 7.32391 8.96266 6.88454C9.25613 6.44517 9.41278 5.92861 9.41278 5.40019C9.41278 4.69159 9.13138 4.01201 8.6305 3.51096C8.12962 3.0099 7.45028 2.72841 6.74193 2.72841ZM6.74193 6.73607C6.47781 6.73607 6.21962 6.65772 6.00001 6.51094C5.7804 6.36415 5.60924 6.15551 5.50816 5.91141C5.40709 5.66731 5.38064 5.3987 5.43217 5.13957C5.4837 4.88043 5.61089 4.6424 5.79765 4.45557C5.98441 4.26875 6.22236 4.14151 6.48141 4.08997C6.74045 4.03842 7.00896 4.06488 7.25298 4.16599C7.49699 4.2671 7.70556 4.43832 7.85229 4.65801C7.99903 4.87769 8.07735 5.13597 8.07735 5.40019C8.07735 5.75449 7.93666 6.09427 7.68622 6.3448C7.43578 6.59533 7.09611 6.73607 6.74193 6.73607Z" fill="#8692A6"/>
</svg>
