<svg width="19" height="20" viewBox="0 0 19 20" fill="none" xmlns="http://www.w3.org/2000/svg">
<path d="M16.7629 8.60081H16.152V8.56934H9.32679V11.6028H13.6127C12.9874 13.3686 11.3073 14.6362 9.32679 14.6362C6.81395 14.6362 4.77661 12.5989 4.77661 10.0861C4.77661 7.57323 6.81395 5.53589 9.32679 5.53589C10.4867 5.53589 11.542 5.97347 12.3454 6.68822L14.4905 4.54319C13.136 3.2809 11.3243 2.50244 9.32679 2.50244C5.13873 2.50244 1.74316 5.89801 1.74316 10.0861C1.74316 14.2741 5.13873 17.6697 9.32679 17.6697C13.5148 17.6697 16.9104 14.2741 16.9104 10.0861C16.9104 9.57758 16.8581 9.08123 16.7629 8.60081Z" fill="#FFC107"/>
<path d="M2.61719 6.55627L5.10879 8.38354C5.78297 6.71439 7.41572 5.53589 9.32642 5.53589C10.4863 5.53589 11.5416 5.97347 12.3451 6.68822L14.4901 4.54319C13.1357 3.2809 11.3239 2.50244 9.32642 2.50244C6.41355 2.50244 3.88744 4.14695 2.61719 6.55627Z" fill="#FF3D00"/>
<path d="M9.32652 17.67C11.2854 17.67 13.0652 16.9203 14.411 15.7012L12.0638 13.7151C11.2769 14.3136 10.3152 14.6373 9.32652 14.6365C7.35402 14.6365 5.67917 13.3788 5.04822 11.6235L2.5752 13.5289C3.83029 15.9849 6.37914 17.67 9.32652 17.67Z" fill="#4CAF50"/>
<path d="M16.7633 8.60081H16.1524V8.56934H9.32715V11.6028H13.613C13.3139 12.4432 12.7752 13.1776 12.0633 13.7152L12.0645 13.7144L14.4116 15.7006C14.2455 15.8515 16.9108 13.8779 16.9108 10.0861C16.9108 9.57758 16.8584 9.08123 16.7633 8.60081Z" fill="#1976D2"/>
</svg>
