<svg width="24" height="25" viewBox="0 0 24 25" fill="none" xmlns="http://www.w3.org/2000/svg">
<path d="M16 2.65405H8C7.46957 2.65405 6.96086 2.86477 6.58579 3.23984C6.21071 3.61491 6 4.12362 6 4.65405V20.6541C6 21.1845 6.21071 21.6932 6.58579 22.0683C6.96086 22.4433 7.46957 22.6541 8 22.6541H16C16.5304 22.6541 17.0391 22.4433 17.4142 22.0683C17.7893 21.6932 18 21.1845 18 20.6541V4.65405C18 4.12362 17.7893 3.61491 17.4142 3.23984C17.0391 2.86477 16.5304 2.65405 16 2.65405ZM13 21.6541H11V20.6541H13V21.6541ZM16 19.6541H8V5.65405H16V19.6541Z" fill="#E3E3E3"/>
</svg>
