<svg width="18" height="16" viewBox="0 0 18 16" fill="none" xmlns="http://www.w3.org/2000/svg">
<path fill-rule="evenodd" clip-rule="evenodd" d="M15.4961 9.31347C17.2123 7.50596 17.2123 4.57525 15.4961 2.76774C13.7842 0.964749 11.0111 0.960244 9.29387 2.75422C7.57664 0.960244 4.80358 0.964749 3.09166 2.76774C1.37545 4.57525 1.37545 7.50596 3.09166 9.31347L8.81173 15.3391C9.07763 15.6192 9.50878 15.6193 9.77471 15.3392L15.4961 9.31347ZM14.533 8.29881L9.29321 13.8174L4.05455 8.29886C2.8701 7.0514 2.8701 5.0288 4.0545 3.78139C5.23889 2.53399 7.15933 2.53399 8.34373 3.78139C8.48612 3.93136 8.61406 4.09683 8.72644 4.27517C8.99577 4.70263 9.59177 4.70263 9.86111 4.27517C9.97368 4.0965 10.1011 3.93175 10.2438 3.78139C11.4282 2.53399 13.3487 2.53399 14.533 3.78139C15.7174 5.0288 15.7174 7.0514 14.533 8.29881Z" fill="black"/>
</svg>
