<svg width="25" height="25" viewBox="0 0 25 25" fill="none" xmlns="http://www.w3.org/2000/svg">
<path fill-rule="evenodd" clip-rule="evenodd" d="M18.2296 0.470797L22.6506 1.73395C23.8611 1.7688 24.5454 2.6315 24.5454 3.62869C24.5454 15.1781 15.1854 24.4755 3.70327 24.4708C2.70379 24.4708 1.84138 23.7863 1.80853 22.5761L0.545376 18.155C0.369648 17.377 0.889909 16.3455 1.80853 15.6287L6.86117 13.734C7.47988 13.523 8.51103 13.7762 9.38748 14.3655L10.6506 16.2603C13.0996 15.0515 15.1244 13.026 16.3348 10.5761L14.4401 9.3129C13.8542 8.43593 13.6011 7.40445 13.8085 6.78659L15.7033 1.73395C16.4227 0.817024 17.4539 0.291906 18.2296 0.470797ZM3.07169 18.155L4.33485 22.5761C14.3074 22.5289 22.6035 14.2329 22.6506 4.26027L18.2296 2.99711L16.3348 7.41817L19.4927 9.94448C17.4167 14.9113 14.9764 17.3421 10.0191 19.4182L7.49274 16.2603L3.07169 18.155Z" fill="white"/>
</svg>
