<svg width="17" height="17" viewBox="0 0 17 17" fill="none" xmlns="http://www.w3.org/2000/svg">
<g clip-path="url(#clip0)">
<path d="M7.6261 12.9673C9.02464 12.9673 10.3659 12.4118 11.3548 11.4229C12.3437 10.4339 12.8993 9.09268 12.8993 7.69415C12.8993 6.29561 12.3437 4.95435 11.3548 3.96544C10.3659 2.97652 9.02464 2.42095 7.6261 2.42095C6.22756 2.42095 4.8863 2.97652 3.89739 3.96544C2.90847 4.95435 2.3529 6.29561 2.3529 7.69415C2.3529 9.09268 2.90847 10.4339 3.89739 11.4229C4.8863 12.4118 6.22756 12.9673 7.6261 12.9673ZM13.1805 12.0059L16.3269 15.1522C16.4108 15.2333 16.4776 15.3304 16.5236 15.4376C16.5696 15.5449 16.5938 15.6602 16.5947 15.7769C16.5956 15.8936 16.5733 16.0093 16.529 16.1173C16.4848 16.2253 16.4195 16.3233 16.3369 16.4058C16.2543 16.4883 16.1561 16.5535 16.0481 16.5976C15.94 16.6417 15.8243 16.6638 15.7076 16.6627C15.5909 16.6616 15.4756 16.6373 15.3684 16.5912C15.2612 16.5451 15.1643 16.478 15.0833 16.394L11.9369 13.2477C10.5241 14.3444 8.74647 14.8614 6.96585 14.6936C5.18524 14.5258 3.53551 13.6856 2.35251 12.3443C1.1695 11.0029 0.54216 9.26112 0.59818 7.47348C0.6542 5.68585 1.38937 3.98676 2.65404 2.72209C3.91871 1.45743 5.6178 0.722254 7.40544 0.666234C9.19307 0.610214 10.9349 1.23756 12.2762 2.42056C13.6176 3.60356 14.4577 5.25328 14.6256 7.0339C14.7934 8.81452 14.2764 10.5922 13.1797 12.005L13.1805 12.0059Z" fill="white"/>
</g>
<defs>
<clipPath id="clip0">
<rect width="16" height="16" fill="white" transform="translate(0.594727 0.662781)"/>
</clipPath>
</defs>
</svg>
