<svg width="19" height="21" viewBox="0 0 19 21" fill="none" xmlns="http://www.w3.org/2000/svg">
<path d="M17.8408 5.59165H17.6424C17.5251 5.17981 17.3613 4.78467 17.1531 4.41109L17.2941 4.27005C17.4554 4.10879 17.5442 3.89371 17.5442 3.66442C17.5442 3.43512 17.4554 3.22009 17.294 3.05864L16.3545 2.12025C16.1931 1.95792 15.9778 1.86855 15.7481 1.86855C15.5184 1.86855 15.303 1.95792 15.1425 2.11944L15.0016 2.26029C14.6278 2.05141 14.2325 1.88728 13.8209 1.77006V1.57172C13.8209 1.0993 13.4366 0.714935 12.9642 0.714935H11.6359C11.1634 0.714935 10.7791 1.0993 10.7791 1.57172V1.77006C10.3676 1.88724 9.97206 2.05141 9.59744 2.26045L9.45724 2.12025C9.29583 1.95792 9.08049 1.86855 8.85081 1.86859C8.62114 1.86859 8.40579 1.95799 8.24526 2.11948L7.30595 3.05883C7.14462 3.22009 7.05583 3.43516 7.05583 3.66446C7.05583 3.89375 7.14462 4.10879 7.30591 4.27005L7.44688 4.41105C7.23776 4.78578 7.07387 5.18099 6.95725 5.59165H6.75815C6.28573 5.59165 5.90137 5.97601 5.90137 6.44844V7.77788C5.90137 8.2503 6.28573 8.63467 6.75815 8.63467H6.95725C7.07387 9.04529 7.23776 9.4405 7.44688 9.81527L7.30591 9.95627C7.14458 10.1175 7.05579 10.3326 7.05579 10.5619C7.05579 10.7912 7.14458 11.0062 7.30588 11.1675L8.24446 12.1061C8.40579 12.2684 8.6211 12.3578 8.85077 12.3578H8.85081C9.08049 12.3578 9.29587 12.2684 9.45644 12.1069L9.5974 11.9659C9.9724 12.1751 10.3679 12.339 10.779 12.4556V12.6546C10.779 13.1271 11.1634 13.5114 11.6358 13.5114H12.9641C13.4365 13.5114 13.8209 13.1271 13.8209 12.6546V12.4556C14.2321 12.339 14.6274 12.1751 15.0016 11.966L15.1417 12.1061C15.303 12.2684 15.5183 12.3578 15.748 12.3578C15.9777 12.3578 16.1931 12.2684 16.3535 12.107L17.2941 11.1675C17.4554 11.0062 17.5442 10.7911 17.5442 10.5619C17.5442 10.3326 17.4554 10.1175 17.2941 9.95627L17.153 9.81523C17.3613 9.44165 17.525 9.04651 17.6424 8.63467H17.8407C18.3131 8.63467 18.6975 8.2503 18.6975 7.77788V6.44844C18.6975 5.97601 18.3132 5.59165 17.8408 5.59165ZM13.0565 12.6546C13.0565 12.7047 13.0142 12.7469 12.9642 12.7469H11.6359C11.5858 12.7469 11.5435 12.7047 11.5435 12.6546V12.1584V9.74873C11.5435 9.58888 11.4441 9.44593 11.2942 9.39036C10.2671 9.00943 9.57707 8.02093 9.57707 6.93061C9.57707 6.06652 10.0073 5.25652 10.7278 4.76403C10.7602 4.74194 10.7887 4.7239 10.8137 4.70911C10.8124 4.75879 10.8089 4.80604 10.807 4.83069C10.8041 4.86948 10.8018 4.9001 10.8018 4.93049V6.73446C10.8018 7.56246 11.4488 8.25397 12.2747 8.30875C12.2915 8.30985 12.3084 8.30985 12.3253 8.30875C13.1506 8.25401 13.7971 7.5625 13.7971 6.73446V4.93049C13.7971 4.90025 13.7948 4.86983 13.792 4.83126C13.7901 4.80649 13.7866 4.75899 13.7853 4.70907C13.8102 4.72382 13.8386 4.74182 13.8709 4.76388C14.5915 5.25648 15.0218 6.06649 15.0218 6.93057C15.0218 8.02078 14.3321 9.00932 13.3056 9.39036C13.1558 9.44597 13.0564 9.58888 13.0564 9.74869V12.1583V12.6546H13.0565ZM17.9331 7.77788C17.9331 7.82707 17.89 7.87022 17.8408 7.87022H17.3456C17.1671 7.87022 17.0123 7.99387 16.9729 8.16805C16.8518 8.70289 16.6422 9.20865 16.3497 9.67125C16.2542 9.8223 16.2762 10.0194 16.4025 10.1457L16.7536 10.4968C16.7764 10.5196 16.7798 10.5473 16.7798 10.5619C16.7798 10.5763 16.7764 10.6041 16.7537 10.6268L15.8124 11.5671C15.7908 11.5887 15.7655 11.5933 15.7481 11.5933C15.7307 11.5933 15.7054 11.5887 15.683 11.5663L15.332 11.2152C15.2054 11.0887 15.0082 11.0669 14.8571 11.1626C14.5308 11.3693 14.1836 11.5334 13.8209 11.6546V10.0029C15.0067 9.45109 15.7863 8.24851 15.7863 6.93053C15.7863 5.8138 15.2315 4.76789 14.3024 4.13275C14.16 4.03548 13.7271 3.73953 13.3486 3.95743C12.9768 4.17147 13.0138 4.67321 13.0296 4.88749C13.031 4.9061 13.0323 4.92173 13.0327 4.93049V6.73446C13.0327 7.15283 12.7129 7.5036 12.3 7.54392C11.8866 7.50356 11.5663 7.1528 11.5663 6.73446L11.5663 4.93324C11.5666 4.92173 11.568 4.9061 11.5694 4.88741C11.5853 4.67325 11.6226 4.17178 11.2512 3.95762C10.8728 3.73933 10.4392 4.0354 10.2966 4.13275C9.36738 4.76793 8.81263 5.81384 8.81263 6.93057C8.81263 8.24874 9.59263 9.4514 10.7791 10.0031V11.6547C10.4164 11.5334 10.0687 11.3693 9.74146 11.1624C9.67855 11.1227 9.60776 11.1033 9.53732 11.1033C9.43859 11.1033 9.34067 11.1415 9.26694 11.2153L8.91514 11.5671C8.89362 11.5888 8.86828 11.5933 8.85085 11.5933C8.83342 11.5933 8.80816 11.5888 8.78584 11.5663L7.84649 10.627C7.82367 10.6042 7.82027 10.5764 7.82027 10.5619C7.82027 10.5474 7.82367 10.5196 7.84649 10.4968L8.19752 10.1457C8.32388 10.0194 8.34582 9.8223 8.25034 9.67125C7.95642 9.2062 7.74681 8.70068 7.62736 8.1687C7.58822 7.99422 7.43327 7.87019 7.25443 7.87019H6.75823C6.70904 7.87019 6.66589 7.82703 6.66589 7.77784V6.4484C6.66589 6.39833 6.70816 6.35606 6.75823 6.35606H7.25443C7.43327 6.35606 7.58818 6.23203 7.62736 6.05754C7.74681 5.52557 7.95638 5.02 8.25034 4.55499C8.34582 4.40394 8.32388 4.20687 8.19752 4.0805L7.84645 3.72943C7.82367 3.70665 7.82027 3.67891 7.82027 3.66438C7.82027 3.64986 7.82367 3.62211 7.84649 3.59929L8.78664 2.6591C8.80816 2.63747 8.83346 2.63292 8.85089 2.63292C8.86832 2.63292 8.89362 2.63747 8.91594 2.6599L9.26697 3.01097C9.39341 3.13737 9.59049 3.15928 9.7415 3.0638C10.2059 2.77017 10.712 2.56014 11.2456 2.43963C11.4199 2.40026 11.5436 2.24542 11.5436 2.06681V1.57172C11.5436 1.52165 11.5859 1.47938 11.6359 1.47938H12.9642C13.0143 1.47938 13.0566 1.52165 13.0566 1.57172V2.06689C13.0566 2.24554 13.1803 2.40034 13.3546 2.43971C13.8886 2.56034 14.3941 2.77025 14.8572 3.06368C15.0083 3.15939 15.2055 3.1376 15.3321 3.01109L15.6839 2.65922C15.7054 2.63758 15.7308 2.63303 15.7481 2.63303C15.7656 2.63303 15.7909 2.63758 15.8133 2.66017L16.7537 3.5994C16.7765 3.62218 16.7799 3.64993 16.7799 3.66446C16.7799 3.67898 16.7765 3.70673 16.7536 3.72955L16.4026 4.08062C16.2763 4.20698 16.2543 4.40405 16.3498 4.55511C16.6422 5.01771 16.8519 5.52343 16.9729 6.05831C17.0123 6.23248 17.1671 6.35613 17.3457 6.35613H17.8408C17.8909 6.35613 17.9332 6.39841 17.9332 6.44848V7.77788H17.9331Z" fill="#343538"/>
<path d="M14.527 17.5449C14.3777 17.6942 14.3777 17.9362 14.527 18.0855C14.6016 18.1601 14.6994 18.1975 14.7973 18.1975C14.8951 18.1975 14.9929 18.1601 15.0675 18.0855L15.0686 18.0845C15.2179 17.9352 15.2173 17.6937 15.068 17.5444C14.9187 17.3952 14.6762 17.3958 14.527 17.5449Z" fill="#343538"/>
<path d="M16.2977 13.8423L13.2632 15.4007C13.006 15.1343 12.6456 14.9681 12.2469 14.9681H10.1677C10.0513 14.9681 10.0229 14.9588 10.021 14.9582C10.0041 14.9493 9.95083 14.8992 9.90806 14.859L9.8891 14.8412C8.20702 13.2578 6.78612 13.3581 5.17028 13.9958C4.90884 14.099 4.90379 14.0992 4.64124 14.1104L4.17111 14.1108C4.03718 13.7067 3.65603 13.4143 3.20765 13.4143H1.67892C1.11984 13.4143 0.665039 13.8697 0.665039 14.4293V18.4415C0.665039 19.0005 1.11984 19.4553 1.67892 19.4553H3.20765C3.65599 19.4553 4.03711 19.1633 4.17108 18.7597H5.03107C5.10702 18.7597 5.10702 18.7597 5.19535 18.7846C5.22746 18.7937 5.26652 18.8047 5.31697 18.8183L9.27273 19.8765C9.4471 19.9236 9.60702 19.97 9.76171 20.0148C10.2685 20.1616 10.6946 20.2851 11.1386 20.2851C11.6404 20.2851 12.1652 20.1274 12.8554 19.6674C12.8587 19.6652 12.862 19.6629 12.8653 19.6606L13.6205 19.1221C13.7924 18.9995 13.8324 18.7608 13.7098 18.589C13.5872 18.417 13.3485 18.3771 13.1767 18.4997L12.4265 19.0346C11.4249 19.7008 10.9996 19.5776 9.97445 19.2805C9.81652 19.2348 9.65323 19.1875 9.47126 19.1383L5.51519 18.08C5.46887 18.0675 5.43252 18.0573 5.40271 18.0489C5.25838 18.0082 5.20441 17.9954 5.03111 17.9954H4.22264V14.8755H4.6357C4.64121 14.8755 4.64663 14.8754 4.65214 14.8752L4.67392 14.8743C4.99434 14.8606 5.08397 14.8518 5.45098 14.7069C6.87013 14.1469 7.96557 14.0804 9.36565 15.3984L9.38457 15.4161C9.62384 15.641 9.76163 15.7326 10.1678 15.7326H12.2469C12.4909 15.7326 12.7037 15.868 12.8146 16.0676C12.8158 16.0698 12.8172 16.0719 12.8184 16.0741C12.8679 16.1658 12.8961 16.2706 12.8961 16.3819C12.8961 16.7393 12.6049 17.03 12.2469 17.03H8.8774C8.66634 17.03 8.49518 17.2012 8.49518 17.4123C8.49518 17.6234 8.66634 17.7945 8.8774 17.7945H12.2469C13.0264 17.7945 13.6606 17.1608 13.6606 16.3819C13.6606 16.276 13.6485 16.1729 13.6263 16.0737L16.647 14.5224C16.9329 14.3757 17.3238 14.3914 17.5179 14.7064C17.6896 14.984 17.5951 15.353 17.2983 15.5646L15.9733 16.5083C15.8013 16.6307 15.7612 16.8694 15.8837 17.0413C15.9582 17.146 16.0759 17.2019 16.1953 17.2019C16.272 17.2019 16.3495 17.1788 16.4167 17.131L17.7419 16.1872C18.3713 15.7385 18.5544 14.929 18.1683 14.3048C17.7886 13.6886 16.9845 13.4898 16.2977 13.8423ZM3.45816 18.4415C3.45816 18.5767 3.34345 18.6909 3.20765 18.6909H1.67892C1.54369 18.6909 1.42948 18.5767 1.42948 18.4415V14.4294C1.42948 14.2912 1.5414 14.1788 1.67892 14.1788H3.20765C3.34345 14.1788 3.45816 14.2935 3.45816 14.4294V18.4415Z" fill="#343538"/>
</svg>
