<svg width="16" height="16" viewBox="0 0 16 16" fill="none" xmlns="http://www.w3.org/2000/svg">
<path fill-rule="evenodd" clip-rule="evenodd" d="M12.6018 3.37438C12.3679 3.14051 11.9887 3.14051 11.7548 3.37438L7.98625 7.14298L4.21764 3.37438C3.98377 3.14051 3.60459 3.14051 3.37072 3.37438C3.13684 3.60825 3.13684 3.98743 3.37072 4.2213L7.13932 7.98991L3.37072 11.7585C3.13684 11.9924 3.13684 12.3716 3.37072 12.6054C3.60459 12.8393 3.98377 12.8393 4.21764 12.6054L7.98625 8.83683L11.7548 12.6054C11.9887 12.8393 12.3679 12.8393 12.6018 12.6054C12.8356 12.3716 12.8356 11.9924 12.6018 11.7585L8.83317 7.98991L12.6018 4.2213C12.8356 3.98743 12.8356 3.60825 12.6018 3.37438Z" fill="white"/>
<mask id="mask0" mask-type="alpha" maskUnits="userSpaceOnUse" x="3" y="3" width="10" height="10">
<path fill-rule="evenodd" clip-rule="evenodd" d="M12.6018 3.37438C12.3679 3.14051 11.9887 3.14051 11.7548 3.37438L7.98625 7.14298L4.21764 3.37438C3.98377 3.14051 3.60459 3.14051 3.37072 3.37438C3.13684 3.60825 3.13684 3.98743 3.37072 4.2213L7.13932 7.98991L3.37072 11.7585C3.13684 11.9924 3.13684 12.3716 3.37072 12.6054C3.60459 12.8393 3.98377 12.8393 4.21764 12.6054L7.98625 8.83683L11.7548 12.6054C11.9887 12.8393 12.3679 12.8393 12.6018 12.6054C12.8356 12.3716 12.8356 11.9924 12.6018 11.7585L8.83317 7.98991L12.6018 4.2213C12.8356 3.98743 12.8356 3.60825 12.6018 3.37438Z" fill="white"/>
</mask>
<g mask="url(#mask0)">
</g>
</svg>
