<svg width="21" height="21" viewBox="0 0 21 21" fill="none" xmlns="http://www.w3.org/2000/svg">
<mask id="mask0" mask-type="alpha" maskUnits="userSpaceOnUse" x="0" y="0" width="21" height="21">
<path fill-rule="evenodd" clip-rule="evenodd" d="M2.86488 2.82445H0.366455V0.326035H4.11409C4.804 0.326035 5.3633 0.885325 5.3633 1.57524V2.82445H19.1046C19.9346 2.82445 20.5338 3.61883 20.3057 4.41685L17.8073 13.1613C17.6541 13.6976 17.1639 14.0673 16.6062 14.0673H4.11409C3.42417 14.0673 2.86488 13.5081 2.86488 12.8181V2.82445ZM4.11412 20.3134C5.49396 20.3134 6.61254 19.1948 6.61254 17.815C6.61254 16.4351 5.49396 15.3166 4.11412 15.3166C2.73428 15.3166 1.6157 16.4351 1.6157 17.815C1.6157 19.1948 2.73428 20.3134 4.11412 20.3134ZM16.6062 20.3134C17.9861 20.3134 19.1046 19.1948 19.1046 17.815C19.1046 16.4351 17.9861 15.3166 16.6062 15.3166C15.2264 15.3166 14.1078 16.4351 14.1078 17.815C14.1078 19.1948 15.2264 20.3134 16.6062 20.3134ZM15.6639 11.5689H5.36333V5.32288H17.4485L15.6639 11.5689Z" fill="white"/>
</mask>
<g mask="url(#mask0)">
<rect x="0.366455" y="0.326035" width="19.9874" height="19.9874" fill="white"/>
</g>
</svg>
