<svg width="20" height="20" viewBox="0 0 20 20" fill="none" xmlns="http://www.w3.org/2000/svg">
<path d="M7.04046 16.4159L7.04046 16.416L7.04235 16.4176C7.67243 16.9662 8.38534 17.5871 9.1246 18.2476C9.3661 18.4637 9.67688 18.5833 9.9999 18.5833C10.3228 18.5833 10.6338 18.4637 10.8751 18.2479C11.616 17.5858 12.33 16.9639 12.9612 16.4145L12.9612 16.4145L12.976 16.4016C14.811 14.8036 16.4192 13.4032 17.5425 12.0181C18.8102 10.4552 19.4166 8.95108 19.4166 7.29659C19.4166 5.7021 18.8815 4.22039 17.8979 3.13025L17.7123 3.29772L17.8979 3.13024C16.9015 2.02597 15.5317 1.41667 14.0451 1.41667C12.929 1.41667 11.9055 1.77856 11.0096 2.48657C10.6425 2.77664 10.3051 3.1184 9.99993 3.5071C9.69483 3.11838 9.3573 2.77663 8.99035 2.48659L8.99034 2.48658C8.09443 1.77856 7.07099 1.41667 5.9548 1.41667C4.46806 1.41667 3.09843 2.02597 2.10203 3.13024L2.10202 3.13025C1.11849 4.22038 0.583252 5.70208 0.583252 7.29659C0.583252 8.9511 1.18979 10.4552 2.45742 12.0182L2.45743 12.0182C3.58108 13.4036 5.18991 14.8045 7.02586 16.4032L7.03725 16.4131L7.03913 16.4147L7.04046 16.4159ZM3.67254 11.0031L3.67253 11.0031C2.61121 9.69453 2.15705 8.55667 2.15705 7.29659C2.15705 6.08752 2.55477 4.99363 3.2627 4.20897C3.95858 3.43784 4.91297 3.01404 5.9548 3.01404C6.71131 3.01404 7.40527 3.25851 8.02334 3.74684C8.5785 4.18557 8.96989 4.7449 9.20171 5.142L9.20175 5.14205C9.36926 5.42882 9.66816 5.60397 9.9999 5.60397C10.3316 5.60397 10.6305 5.42882 10.7981 5.14205L10.5822 5.01595L10.7981 5.14205C11.03 4.74491 11.4214 4.18558 11.9764 3.74686C12.5945 3.25852 13.2885 3.01404 14.0451 3.01404C15.0869 3.01404 16.0414 3.43785 16.7371 4.20897C17.445 4.99363 17.8428 6.08752 17.8428 7.29659C17.8428 8.55668 17.3886 9.69454 16.3274 11.0031C15.2938 12.2775 13.751 13.6219 11.9364 15.2022C11.3497 15.7129 10.6899 16.2875 9.99868 16.9008C9.31118 16.2887 8.65249 15.7151 8.06726 15.2054L8.06518 15.2036L8.06286 15.2017C6.24854 13.6217 4.70594 12.2773 3.67254 11.0031Z" fill="white" stroke="white" stroke-width="0.5"/>
</svg>
