<svg width="20" height="21" viewBox="0 0 20 21" fill="none" xmlns="http://www.w3.org/2000/svg">
<mask id="mask0" mask-type="alpha" maskUnits="userSpaceOnUse" x="1" y="0" width="18" height="21">
<path fill-rule="evenodd" clip-rule="evenodd" d="M4.9969 5.32286C4.9969 8.08254 7.23406 10.3197 9.99374 10.3197C12.7534 10.3197 14.9906 8.08254 14.9906 5.32286C14.9906 2.56318 12.7534 0.326019 9.99374 0.326019C7.23406 0.326019 4.9969 2.56318 4.9969 5.32286ZM12.4922 5.32286C12.4922 6.7027 11.3736 7.82128 9.99374 7.82128C8.6139 7.82128 7.49532 6.7027 7.49532 5.32286C7.49532 3.94302 8.6139 2.82444 9.99374 2.82444C11.3736 2.82444 12.4922 3.94302 12.4922 5.32286ZM13.7414 11.5689C16.501 11.5689 18.7382 13.8061 18.7382 16.5658V20.3134H1.24927V16.5658C1.24927 13.8061 3.48643 11.5689 6.24611 11.5689H13.7414ZM16.2398 16.5658V17.815H3.74769V16.5658C3.74769 15.1859 4.86627 14.0673 6.24611 14.0673H13.7414C15.1212 14.0673 16.2398 15.1859 16.2398 16.5658Z" fill="white"/>
</mask>
<g mask="url(#mask0)">
<rect y="0.326019" width="19.9874" height="19.9874" fill="white"/>
</g>
</svg>
