<?xml version="1.0" encoding="utf-8"?>
<!-- Generator: Adobe Illustrator 22.1.0, SVG Export Plug-In . SVG Version: 6.00 Build 0)  -->
<svg version="1.1" id="Слой_1" xmlns:xodm="http://www.corel.com/coreldraw/odm/2003"
	 xmlns="http://www.w3.org/2000/svg" xmlns:xlink="http://www.w3.org/1999/xlink" x="0px" y="0px" viewBox="0 0 216.3 62.3"
	 style="enable-background:new 0 0 216.3 62.3;" xml:space="preserve">
<style type="text/css">
	.st0{display:none;fill:#FEFEFE;stroke:#2B2A29;stroke-width:20;stroke-miterlimit:22.9256;}
	.st1{display:none;fill:#FFED00;}
	.st2{display:none;}
	.st3{display:inline;}
	.st4{fill:#2B2A29;}
	.st5{display:inline;fill:#2B2A29;}
	.st6{display:inline;fill:#FFED00;}
	.st7{fill:#FFED00;}
	.st8{fill:#FEFEFE;}
</style>
<g id="Слой_x0020_1">
	<g id="_2353513744064">
		<polygon class="st0" points="-17.7,-475 220.8,-475 220.8,-272.3 -17.7,-272.3 		"/>
		<path class="st1" d="M67.3,31.5v11.2l-22-22.1L23.2,42.7V31.5L45.3,9.4L67.3,31.5z M56.3,9.4l11,11v-11H56.3z M34.2,9.4l-11,11
			v-11H34.2z M67.3,53.5l-22-22l-22.1,22H67.3z"/>
		<g class="st2">
			<g class="st3">
				<path class="st4" d="M85.8-401.9h-5.2l-8.8,23.1H77l1.9-5.1h8.6l1.8,5.1h5.3L85.8-401.9z M86.2-387.7h-6.1l3.1-8.6L86.2-387.7z"
					/>
				<polygon class="st4" points="118.8,-383.2 107.5,-383.2 107.5,-401.9 102.5,-401.9 102.5,-378.9 118.8,-378.9 				"/>
				<polygon class="st4" points="141.3,-401.9 122.3,-401.9 122.3,-397.6 129.3,-397.6 129.3,-378.9 134.4,-378.9 134.4,-397.6 
					141.3,-397.6 				"/>
				<path class="st4" d="M159.2-401.9H154l-8.8,23.1h5.2l1.9-5.1h8.6l1.8,5.1h5.3L159.2-401.9z M159.6-387.7h-6.1l3.1-8.6
					L159.6-387.7z"/>
				<path class="st4" d="M75.2-369.5v23.1h5v-8.3h5.2c4.6,0,8.2-2.3,8.2-7.4s-3.5-7.4-8.5-7.4C85.1-369.5,75.2-369.5,75.2-369.5z
					 M80.2-365.4h4.5c2.2,0,3.9,0.9,3.9,3.3c0,2.6-1.7,3.3-4,3.3h-4.5L80.2-365.4L80.2-365.4z"/>
				<polygon class="st4" points="118.8,-350.8 107.5,-350.8 107.5,-369.5 102.5,-369.5 102.5,-346.5 118.8,-346.5 				"/>
				<path class="st4" d="M138.1-369.5h-5.2l-8.8,23.1h5.2l1.9-5.1h8.6l1.8,5.1h5.3L138.1-369.5z M138.5-355.3h-6.1l3.1-8.6
					L138.5-355.3z"/>
				<path class="st4" d="M172.4-362.6c-0.1-5.1-4-7.4-8.9-7.4c-5.4,0-8.9,2.7-8.9,6.9c0,4.7,3.6,5.6,7.4,6.7
					c4.8,1.4,6.3,1.7,6.3,3.5c0,1.9-1.6,3.1-4.3,3.1c-3.1,0-5.1-1.2-5.2-4.3h-5c0.1,5.2,3.8,8.2,10,8.2c4.7,0,9.5-2,9.5-7.4
					c0-3.9-2.6-5.4-6.7-6.6c-4.6-1.3-7.1-1.5-7.1-3.5c0-1.7,1.4-2.6,3.7-2.6c2.7,0,4.2,1.2,4.4,3.4L172.4-362.6L172.4-362.6z"/>
				<polygon class="st4" points="199.4,-369.5 180.5,-369.5 180.5,-365.2 187.4,-365.2 187.4,-346.5 192.5,-346.5 192.5,-365.2 
					199.4,-365.2 				"/>
			</g>
			<polygon class="st5" points="3.6,-401.5 58.8,-401.5 58.8,-346.3 3.6,-346.3 			"/>
			<path class="st6" d="M53.3-373.9v11.2l-22.1-22.1L9.1-362.7v-11.2L31.2-396C31.2-396,53.3-373.9,53.3-373.9z M42.2-396l11,11v-11
				H42.2z M20.2-396l-11,11v-11H20.2z M53.3-351.9L31.2-374L9.1-351.9H53.3z"/>
		</g>
		<polygon class="st1" points="-17.7,-272.3 220.8,-272.3 220.8,-69.6 -17.7,-69.6 		"/>
		<g class="st2">
			<polygon class="st5" points="3.6,-198.6 58.8,-198.6 58.8,-143.4 3.6,-143.4 			"/>
			<path class="st6" d="M53.3-171v11.2l-22.1-22.1L9.1-159.8V-171l22.1-22.1L53.3-171z M42.2-193l11,11v-11H42.2z M20.2-193l-11,11
				v-11H20.2z M53.3-148.9L31.2-171L9.1-148.9H53.3z"/>
			<g class="st3">
				<path class="st4" d="M85.8-199h-5.2l-8.8,23.1H77l1.9-5.1h8.6l1.8,5.1h5.3L85.8-199z M86.2-184.8h-6.1l3.1-8.6L86.2-184.8z"/>
				<polygon class="st4" points="118.8,-180.2 107.5,-180.2 107.5,-199 102.5,-199 102.5,-175.9 118.8,-175.9 				"/>
				<polygon class="st4" points="141.3,-199 122.3,-199 122.3,-194.7 129.3,-194.7 129.3,-175.9 134.4,-175.9 134.4,-194.7 
					141.3,-194.7 				"/>
				<path class="st4" d="M159.2-199H154l-8.8,23.1h5.2l1.9-5.1h8.6l1.8,5.1h5.3L159.2-199z M159.6-184.8h-6.1l3.1-8.6L159.6-184.8z"
					/>
				<path class="st4" d="M75.2-166.6v23.1h5v-8.3h5.2c4.6,0,8.2-2.3,8.2-7.4c0-5.1-3.5-7.4-8.5-7.4
					C85.1-166.6,75.2-166.6,75.2-166.6z M80.2-162.4h4.5c2.2,0,3.9,0.9,3.9,3.3c0,2.6-1.7,3.3-4,3.3h-4.5L80.2-162.4L80.2-162.4z"/>
				<polygon class="st4" points="118.8,-147.8 107.5,-147.8 107.5,-166.6 102.5,-166.6 102.5,-143.5 118.8,-143.5 				"/>
				<path class="st4" d="M138.1-166.6h-5.2l-8.8,23.1h5.2l1.9-5.1h8.6l1.8,5.1h5.3L138.1-166.6z M138.5-152.3h-6.1l3.1-8.6
					L138.5-152.3z"/>
				<path class="st4" d="M172.4-159.7c-0.1-5.1-4-7.4-8.9-7.4c-5.4,0-8.9,2.7-8.9,6.9c0,4.7,3.6,5.6,7.4,6.7
					c4.8,1.4,6.3,1.7,6.3,3.5c0,1.9-1.6,3.1-4.3,3.1c-3.1,0-5.1-1.2-5.2-4.3h-5c0.1,5.2,3.8,8.2,10,8.2c4.7,0,9.5-2,9.5-7.4
					c0-3.9-2.6-5.4-6.7-6.6c-4.6-1.3-7.1-1.5-7.1-3.5c0-1.7,1.4-2.6,3.7-2.6c2.7,0,4.2,1.2,4.4,3.4L172.4-159.7L172.4-159.7z"/>
				<polygon class="st4" points="199.4,-166.6 180.5,-166.6 180.5,-162.2 187.4,-162.2 187.4,-143.5 192.5,-143.5 192.5,-162.2 
					199.4,-162.2 				"/>
			</g>
		</g>
		<g>
			<polygon class="st4" points="4.3,3.9 59.4,3.9 59.4,59.1 4.3,59.1 			"/>
			<path class="st7" d="M4.3,2.6h56.5v57.7H3V2.6H4.3z M58.1,5.2H5.5v52.6h52.6V5.2z"/>
			<path class="st7" d="M53.9,31.5v11.2L31.8,20.6l-22,22.1V31.5L31.9,9.4L53.9,31.5z M42.9,9.4l11,11v-11H42.9z M20.8,9.4l-11,11
				v-11H20.8z M53.9,53.5l-22.1-22l-22,22H53.9z"/>
			<g>
				<path class="st8" d="M86.4,3.5h-5.2l-8.8,23.1h5.2l1.9-5.1h8.6l1.8,5.1h5.3L86.4,3.5z M86.8,17.7h-6.1l3.1-8.6L86.8,17.7z"/>
				<polygon class="st8" points="119.4,22.2 108.2,22.2 108.2,3.5 103.1,3.5 103.1,26.5 119.4,26.5 				"/>
				<polygon class="st8" points="141.9,3.5 123,3.5 123,7.8 129.9,7.8 129.9,26.5 135,26.5 135,7.8 141.9,7.8 				"/>
				<path class="st8" d="M159.8,3.5h-5.2l-8.8,23.1h5.2l1.9-5.1h8.6l1.8,5.1h5.3L159.8,3.5z M160.2,17.7h-6.1l3.1-8.6L160.2,17.7z"
					/>
				<path class="st8" d="M75.8,35.9V59h5v-8.3H86c4.6,0,8.2-2.3,8.2-7.4s-3.5-7.4-8.5-7.4C85.8,35.9,75.8,35.9,75.8,35.9z M80.9,40
					h4.5c2.2,0,3.9,0.9,3.9,3.3c0,2.6-1.7,3.3-4,3.3h-4.5L80.9,40L80.9,40z"/>
				<polygon class="st8" points="119.4,54.6 108.2,54.6 108.2,35.9 103.1,35.9 103.1,58.9 119.4,58.9 				"/>
				<path class="st8" d="M138.8,35.9h-5.2L124.8,59h5.2l1.9-5.1h8.6l1.8,5.1h5.3L138.8,35.9z M139.2,50.1h-6.1l3.1-8.6L139.2,50.1z"
					/>
				<path class="st8" d="M173,42.8c-0.1-5.1-4-7.4-8.9-7.4c-5.4,0-8.9,2.7-8.9,6.9c0,4.7,3.6,5.6,7.4,6.7c4.8,1.4,6.3,1.7,6.3,3.5
					c0,1.9-1.6,3.1-4.3,3.1c-3.1,0-5.1-1.2-5.2-4.3h-5c0.1,5.2,3.8,8.2,10,8.2c4.7,0,9.5-2,9.5-7.4c0-3.9-2.6-5.4-6.7-6.6
					c-4.6-1.3-7.1-1.5-7.1-3.5c0-1.7,1.4-2.6,3.7-2.6c2.7,0,4.2,1.2,4.4,3.4L173,42.8L173,42.8z"/>
				<polygon class="st8" points="200.1,35.9 181.1,35.9 181.1,40.2 188,40.2 188,58.9 193.1,58.9 193.1,40.2 200.1,40.2 				"/>
			</g>
		</g>
	</g>
</g>
</svg>
